<svg
   xmlns:dc="http://purl.org/dc/elements/1.1/"
   xmlns:cc="http://creativecommons.org/ns#"
   xmlns:rdf="http://www.w3.org/1999/02/22-rdf-syntax-ns#"
   xmlns:svg="http://www.w3.org/2000/svg"
   xmlns="http://www.w3.org/2000/svg"
   xmlns:sodipodi="http://sodipodi.sourceforge.net/DTD/sodipodi-0.dtd"
   xmlns:inkscape="http://www.inkscape.org/namespaces/inkscape"
  
  
   viewBox="0 0 71.084708 27.168105"
   version="1.1"
   id="svg66477" width="120" height="46">
  <defs
     id="defs66471">
    <clipPath
       id="clip2">
      <path
         id="path4040"
         d="M 30.539063,100.73438 H 126.44531 V 32.703125 H 30.539063 Z" />
    </clipPath>
  </defs>
  <sodipodi:namedview
     id="base"
     pagecolor="#ffffff"
     bordercolor="#666666"
     borderopacity="1.0"
     showgrid="false"
     fit-margin-top="0"
     fit-margin-left="0"
     fit-margin-right="0"
     fit-margin-bottom="0"
     units="px" />
  <metadata
     id="metadata66474">
    <rdf:RDF>
      <cc:Work
         rdf:about="">
        <dc:format>image/svg+xml</dc:format>
        <dc:type
           rdf:resource="http://purl.org/dc/dcmitype/StillImage" />
        <dc:title></dc:title>
      </cc:Work>
    </rdf:RDF>
  </metadata>
  <g
     id="layer1"
     transform="translate(271.89087,-240.06209)">
    <g
       transform="matrix(0.90879111,0,0,0.90879111,-307.67974,193.01274)"
       id="g11903">
      <g
         style="clip-rule:nonzero"
         id="g4583"
         clip-path="url(#clip2)">
        <path
           id="path4585"
           d="m 52.675781,70.347656 c 0,-2.523437 1.40625,-3.753906 2.984375,-3.753906 1.292969,0 2.847657,0.828125 2.847657,3.660156 0,2.496094 -1.277344,3.859375 -2.960938,3.859375 -1.574219,0 -2.871094,-1.238281 -2.871094,-3.753906 z m 1.34375,0.03906 c 0,2.265625 0.824219,2.984375 1.5625,2.984375 0.628907,0 1.582032,-0.484375 1.582032,-3.019531 0,-0.9375 -0.08984,-3.039063 -1.53125,-3.039063 -0.957032,0 -1.613282,0.933594 -1.613282,3.0625 z"
           style="fill:#990561;fill-opacity:1;fill-rule:nonzero;stroke:none" />
        <path
           id="path4587"
           d="m 61.027344,66.691406 1.179687,5.191407 1.253907,-5.191407 h 0.777343 l 1.214844,5.175782 1.1875,-5.175782 h 0.878906 l -1.808593,7.3125 h -0.792969 l -1.25,-5.339843 -1.296875,5.339843 h -0.789063 l -1.8125,-7.3125 z"
           style="fill:#990561;fill-opacity:1;fill-rule:nonzero;stroke:none" />
        <path
           id="path4589"
           d="M 70.234375,66.691406 73.589844,71.875 v -5.183594 h 0.890625 v 7.3125 h -0.8125 l -3.359375,-5.183593 v 5.183593 h -0.886719 v -7.3125 z"
           style="fill:#990561;fill-opacity:1;fill-rule:nonzero;stroke:none" />
        <path
           id="path4591"
           d="m 80.683594,66.691406 v 0.773438 h -2.617188 v 2.375 h 2.441407 v 0.757812 h -2.441407 v 2.601563 h 2.660157 v 0.804687 h -3.886719 v -7.3125 z"
           style="fill:#990561;fill-opacity:1;fill-rule:nonzero;stroke:none" />
        <path
           id="path4593"
           d="m 44.207031,67.695313 -0.05859,-0.02734 c -0.292969,-0.140625 -0.699219,-0.300781 -1.1875,-0.300781 -1.101563,0 -1.933594,1.089843 -1.933594,2.992187 0,2.109375 0.933594,2.980469 1.863281,2.980469 0.511719,0 0.945313,-0.234375 1.230469,-0.402344 l 0.05469,-0.03125 0.363282,0.6875 -0.05469,0.02734 c -0.390625,0.207031 -0.976562,0.492187 -1.800781,0.492187 -1.988281,0 -3.011719,-1.714843 -3.011719,-3.726562 0,-2.050781 1.109375,-3.792969 3.179688,-3.792969 0.5,0 1.066406,0.08203 1.617187,0.363281 l 0.05469,0.02734 z"
           style="fill:#990561;fill-opacity:1;fill-rule:nonzero;stroke:none" />
        <path
           id="path4595"
           d="m 48.308594,66.691406 c 0.773437,0 1.273437,0.0078 1.824219,0.304688 0.675781,0.375 0.84375,1.066406 0.84375,1.5 0,0.820312 -0.414063,1.722656 -1.71875,2.039062 l 2.394531,3.46875 H 50.222656 L 48.140625,70.71875 h -0.347656 v 3.285156 h -1.210938 v -7.3125 z m -0.515625,0.75 v 2.601563 h 0.371094 c 0.582031,0 1.5625,0 1.5625,-1.410156 0,-0.617188 -0.207032,-0.902344 -0.480469,-1.046875 -0.140625,-0.07031 -0.304688,-0.109375 -0.476563,-0.128907 -0.175781,-0.01563 -0.355468,-0.01563 -0.527343,-0.01563 z"
           style="fill:#990561;fill-opacity:1;fill-rule:nonzero;stroke:none" />
        <path
           id="path4597"
           d="m 116.125,67.992188 h 0.16406 v -0.363282 h 0.12891 c 0.0859,0 0.14453,0.01172 0.17969,0.02734 0.0586,0.03516 0.0859,0.105469 0.0859,0.214844 v 0.07422 l 0.004,0.04687 h 0.16016 c -0.0117,-0.01563 -0.0117,-0.03516 -0.0156,-0.05859 0,-0.02344 -0.004,-0.04687 -0.004,-0.07031 v -0.06641 c 0,-0.04687 -0.0156,-0.09375 -0.0508,-0.144531 -0.0312,-0.04687 -0.0859,-0.07813 -0.15625,-0.08984 0.0586,-0.0078 0.10157,-0.02344 0.13282,-0.04687 0.0586,-0.03516 0.0898,-0.09766 0.0898,-0.179687 0,-0.117188 -0.0469,-0.195313 -0.14453,-0.234375 -0.0508,-0.02344 -0.13672,-0.03516 -0.25,-0.03516 h -0.32422 z m 0.46484,-0.5 c -0.0352,0.01563 -0.0859,0.02344 -0.15234,0.02344 h -0.14844 v -0.335937 h 0.13672 c 0.0937,0 0.15625,0.01172 0.19922,0.03516 0.0391,0.01953 0.0586,0.06641 0.0586,0.132812 0,0.07031 -0.0312,0.121094 -0.0937,0.144532 m 0.4726,-0.554695 c -0.16406,-0.164062 -0.36328,-0.246094 -0.59766,-0.246094 -0.23437,0 -0.42968,0.08203 -0.59375,0.246094 -0.16406,0.164063 -0.24609,0.363281 -0.24609,0.59375 0,0.234375 0.0781,0.433594 0.24219,0.597656 0.16406,0.167969 0.36328,0.25 0.59765,0.25 0.23438,0 0.4336,-0.08203 0.59766,-0.25 0.16406,-0.164062 0.24609,-0.363281 0.24609,-0.597656 0,-0.230469 -0.082,-0.429687 -0.24609,-0.59375 m -0.0859,0.08203 c 0.14063,0.140625 0.21094,0.3125 0.21094,0.511719 0,0.203125 -0.0703,0.375 -0.21094,0.519531 -0.13672,0.140625 -0.30859,0.214844 -0.51172,0.214844 -0.19921,0 -0.37109,-0.07422 -0.51562,-0.214844 -0.13672,-0.144531 -0.20703,-0.316406 -0.20703,-0.519531 0,-0.199219 0.0703,-0.371094 0.21094,-0.511719 0.14062,-0.144531 0.3125,-0.214843 0.51171,-0.214843 0.19922,0 0.3711,0.07031 0.51172,0.214843"
           style="fill:#990561;fill-opacity:1;fill-rule:nonzero;stroke:none" />
        <path
           id="path4599"
           d="m 113.96094,66.691406 2.5039,7.3125 h -1.30468 l -0.77735,-2.390625 H 112.375 l -0.76172,2.390625 h -0.91015 l 2.47656,-7.3125 z m -1.36328,4.203125 h 1.55859 l -0.76953,-2.460937 z"
           style="fill:#990561;fill-opacity:1;fill-rule:nonzero;stroke:none" />
        <path
           id="path4601"
           d="m 88.097656,66.691406 c 0.847657,0 1.429688,0.01563 1.957032,0.363282 0.648437,0.425781 0.742187,1.152343 0.742187,1.546875 0,1.09375 -0.714844,2.199218 -2.527344,2.199218 H 87.375 v 3.203125 h -1.222656 v -7.3125 z m -0.722656,0.75 v 2.589844 h 0.660156 c 0.707032,0 1.460938,-0.121094 1.460938,-1.417969 0,-0.621093 -0.210938,-0.902343 -0.484375,-1.039062 -0.140625,-0.07031 -0.300781,-0.101563 -0.46875,-0.121094 -0.171875,-0.01563 -0.34375,-0.01172 -0.507813,-0.01172 z"
           style="fill:#990561;fill-opacity:1;fill-rule:nonzero;stroke:none" />
        <path
           id="path4603"
           d="m 93.621094,66.691406 v 6.511719 H 96.1875 v 0.800781 h -3.792969 v -7.3125 z"
           style="fill:#990561;fill-opacity:1;fill-rule:nonzero;stroke:none" />
        <path
           id="path4605"
           d="m 100.66016,66.691406 2.5039,7.3125 h -1.30468 l -0.77735,-2.390625 H 99.074219 L 98.3125,74.003906 h -0.914062 l 2.480468,-7.3125 z m -1.363285,4.203125 h 1.558595 l -0.76953,-2.460937 z"
           style="fill:#990561;fill-opacity:1;fill-rule:nonzero;stroke:none" />
        <path
           id="path4607"
           d="M 109.32031,66.691406 V 67.3125 l -3.50781,5.886719 h 3.69922 v 0.804687 H 104.375 v -0.621093 l 3.52734,-5.917969 h -3.3125 v -0.773438 z"
           style="fill:#990561;fill-opacity:1;fill-rule:nonzero;stroke:none" />
        <path
           id="path4609"
           d="M 58.183594,81.3125 V 79.699219 H 56.222656 V 81.3125 h -0.464843 v -3.609375 h 0.464843 v 1.59375 h 1.960938 v -1.59375 h 0.46875 V 81.3125 Z"
           style="fill:#990561;fill-opacity:1;fill-rule:nonzero;stroke:none" />
        <path
           id="path4611"
           d="m 61.191406,78.046875 c -0.726562,0 -1.429687,0.554688 -1.429687,1.464844 0,0.914062 0.703125,1.472656 1.429687,1.472656 0.71875,0 1.433594,-0.558594 1.433594,-1.472656 0,-0.910156 -0.714844,-1.464844 -1.433594,-1.464844 m 0,3.328125 c -0.976562,0 -1.898437,-0.722656 -1.898437,-1.871094 0,-1.136718 0.921875,-1.867187 1.898437,-1.867187 0.980469,0 1.902344,0.730469 1.902344,1.867187 0,1.148438 -0.921875,1.871094 -1.902344,1.871094"
           style="fill:#990561;fill-opacity:1;fill-rule:nonzero;stroke:none" />
        <path
           id="path4613"
           d="M 64.835938,78.105469 V 81.3125 h -0.464844 v -3.207031 h -1.199219 v -0.402344 h 2.859375 v 0.402344 z"
           style="fill:#990561;fill-opacity:1;fill-rule:nonzero;stroke:none" />
        <path
           id="path4615"
           d="m 66.472656,81.3125 v -3.609375 h 1.910157 v 0.402344 H 66.9375 v 1.191406 h 1.203125 v 0.402344 H 66.9375 v 1.210937 h 1.652344 V 81.3125 Z"
           style="fill:#990561;fill-opacity:1;fill-rule:nonzero;stroke:none" />
        <path
           id="path4617"
           d="m 69.03125,81.3125 v -3.609375 h 0.460938 v 3.207031 h 1.636718 V 81.3125 Z"
           style="fill:#990561;fill-opacity:1;fill-rule:nonzero;stroke:none" />
        <path
           id="path4619"
           d="m 72.4375,81.339844 c -0.402344,0 -0.738281,-0.125 -0.929687,-0.257813 l -0.05859,-0.46875 c 0.257812,0.199219 0.609375,0.34375 1.007812,0.34375 0.421875,0 0.722657,-0.246093 0.722657,-0.605468 0,-0.363282 -0.207032,-0.5625 -0.679688,-0.726563 -0.632812,-0.214844 -0.949219,-0.523437 -0.949219,-1.027344 0,-0.46875 0.351563,-0.929687 1.082032,-0.929687 0.339843,0 0.621093,0.109375 0.761718,0.207031 l -0.08984,0.371094 c -0.136719,-0.09375 -0.40625,-0.207031 -0.683594,-0.207031 -0.414063,0 -0.644531,0.253906 -0.644531,0.523437 0,0.292969 0.195312,0.476563 0.617187,0.621094 0.625,0.226562 1.027344,0.511719 1.027344,1.128906 0,0.621094 -0.441406,1.027344 -1.183594,1.027344"
           style="fill:#990561;fill-opacity:1;fill-rule:nonzero;stroke:none" />
        <path
           id="path4621"
           d="m 76.605469,78.007813 c -0.292969,0 -0.492188,0.234375 -0.492188,0.484375 0,0.234375 0.160157,0.421875 0.441407,0.699218 0.402343,-0.222656 0.582031,-0.4375 0.582031,-0.671875 0,-0.273437 -0.195313,-0.511718 -0.53125,-0.511718 m -0.152344,1.675781 c -0.332031,0.179687 -0.546875,0.378906 -0.546875,0.710937 0,0.339844 0.304688,0.601563 0.699219,0.601563 0.3125,0 0.589844,-0.125 0.820312,-0.335938 z M 78.082031,81.3125 77.71875,80.949219 C 77.414063,81.222656 77.035156,81.375 76.582031,81.375 c -0.664062,0 -1.117187,-0.4375 -1.117187,-0.957031 0,-0.46875 0.253906,-0.761719 0.707031,-1.023438 -0.304687,-0.3125 -0.476562,-0.582031 -0.476562,-0.882812 0,-0.535156 0.433593,-0.875 0.910156,-0.875 0.492187,0 0.949219,0.339844 0.949219,0.875 0,0.378906 -0.222657,0.691406 -0.710938,0.96875 l 0.867188,0.871094 c 0.171875,-0.238282 0.308593,-0.515625 0.394531,-0.796875 l 0.292969,0.292968 C 78.300781,80.140625 78.167969,80.414063 78,80.640625 l 0.671875,0.671875 z"
           style="fill:#990561;fill-opacity:1;fill-rule:nonzero;stroke:none" />
        <path
           id="path4623"
           d="m 81.425781,78.105469 h -0.507812 v 1.203125 h 0.511719 c 0.355468,0 0.671875,-0.203125 0.671875,-0.597656 0,-0.390625 -0.316407,-0.605469 -0.675782,-0.605469 M 82.578125,81.3125 81.410156,79.695313 H 80.917969 V 81.3125 h -0.457031 v -3.609375 h 1.042968 c 0.53125,0 1.074219,0.34375 1.074219,0.996094 0,0.476562 -0.296875,0.792969 -0.675781,0.921875 l 1.25,1.691406 z"
           style="fill:#990561;fill-opacity:1;fill-rule:nonzero;stroke:none" />
        <path
           id="path4625"
           d="m 83.398438,81.3125 v -3.609375 h 1.910156 v 0.402344 h -1.449219 v 1.191406 h 1.207031 v 0.402344 h -1.207031 v 1.210937 h 1.652344 V 81.3125 Z"
           style="fill:#990561;fill-opacity:1;fill-rule:nonzero;stroke:none" />
        <path
           id="path4627"
           d="m 86.792969,81.339844 c -0.398438,0 -0.738281,-0.125 -0.933594,-0.257813 l -0.05469,-0.46875 c 0.261718,0.199219 0.609375,0.34375 1.007812,0.34375 0.421875,0 0.722656,-0.246093 0.722656,-0.605468 0,-0.363282 -0.210937,-0.5625 -0.679687,-0.726563 -0.632813,-0.214844 -0.949219,-0.523437 -0.949219,-1.027344 0,-0.46875 0.351563,-0.929687 1.078125,-0.929687 0.339844,0 0.625,0.109375 0.765625,0.207031 l -0.08984,0.371094 c -0.136718,-0.09375 -0.40625,-0.207031 -0.683593,-0.207031 -0.414063,0 -0.648438,0.253906 -0.648438,0.523437 0,0.292969 0.199219,0.476563 0.617188,0.621094 0.628906,0.226562 1.03125,0.511719 1.03125,1.128906 0,0.621094 -0.441407,1.027344 -1.183594,1.027344"
           style="fill:#990561;fill-opacity:1;fill-rule:nonzero;stroke:none" />
        <path
           id="path4629"
           d="m 90.335938,78.046875 c -0.730469,0 -1.433594,0.554688 -1.433594,1.464844 0,0.914062 0.703125,1.472656 1.433594,1.472656 0.714843,0 1.429687,-0.558594 1.429687,-1.472656 0,-0.910156 -0.714844,-1.464844 -1.429687,-1.464844 m 0,3.328125 c -0.980469,0 -1.902344,-0.722656 -1.902344,-1.871094 0,-1.136718 0.921875,-1.867187 1.902344,-1.867187 0.976562,0 1.898437,0.730469 1.898437,1.867187 0,1.148438 -0.921875,1.871094 -1.898437,1.871094"
           style="fill:#990561;fill-opacity:1;fill-rule:nonzero;stroke:none" />
        <path
           id="path4631"
           d="m 93.835938,78.105469 h -0.507813 v 1.203125 h 0.511719 c 0.355469,0 0.671875,-0.203125 0.671875,-0.597656 0,-0.390625 -0.316406,-0.605469 -0.675781,-0.605469 M 94.988281,81.3125 93.820313,79.695313 H 93.328125 V 81.3125 h -0.457031 v -3.609375 h 1.042969 c 0.53125,0 1.074218,0.34375 1.074218,0.996094 0,0.476562 -0.296875,0.792969 -0.675781,0.921875 l 1.25,1.691406 z"
           style="fill:#990561;fill-opacity:1;fill-rule:nonzero;stroke:none" />
        <path
           id="path4633"
           d="M 96.859375,78.105469 V 81.3125 h -0.464844 v -3.207031 h -1.199218 v -0.402344 h 2.859375 v 0.402344 z"
           style="fill:#990561;fill-opacity:1;fill-rule:nonzero;stroke:none" />
        <path
           id="path4635"
           d="m 99.34375,81.339844 c -0.398437,0 -0.738281,-0.125 -0.933594,-0.257813 l -0.05469,-0.46875 c 0.257812,0.199219 0.609375,0.34375 1.007812,0.34375 0.421875,0 0.722662,-0.246093 0.722662,-0.605468 0,-0.363282 -0.210943,-0.5625 -0.679693,-0.726563 -0.632812,-0.214844 -0.949219,-0.523437 -0.949219,-1.027344 0,-0.46875 0.351563,-0.929687 1.078125,-0.929687 0.339844,0 0.625007,0.109375 0.765627,0.207031 l -0.0898,0.371094 c -0.13672,-0.09375 -0.406255,-0.207031 -0.683599,-0.207031 -0.414063,0 -0.648438,0.253906 -0.648438,0.523437 0,0.292969 0.199219,0.476563 0.617188,0.621094 0.628909,0.226562 1.031249,0.511719 1.031249,1.128906 0,0.621094 -0.4414,1.027344 -1.183593,1.027344"
           style="fill:#990561;fill-opacity:1;fill-rule:nonzero;stroke:none" />
        <path
           id="path4637"
           d="m 79.019531,55.320313 c -0.425781,1.210937 -2.757812,0.07031 -3.960937,-0.492188 -0.890625,-0.414062 -1.5,-0.757812 -1.84375,-0.957031 l 0.878906,1.117187 h -1.191406 c 0.34375,0.199219 0.949219,0.539063 1.820312,0.945313 1.203125,0.566406 3.539063,1.707031 3.964844,0.492187 0.730469,-2.082031 4.964844,0.496094 5.382813,0.757813 l 0.328125,-1.113281 c -0.445313,-0.277344 -4.652344,-2.824219 -5.378907,-0.75"
           style="fill:#990561;fill-opacity:1;fill-rule:nonzero;stroke:none" />
        <path
           id="path4639"
           d="M 78.425781,57.320313 C 78,58.53125 75.664063,57.390625 74.460938,56.828125 c -0.890625,-0.414062 -1.5,-0.757812 -1.84375,-0.953125 l 0.878906,1.117188 h -1.1875 c 0.339844,0.195312 0.949219,0.539062 1.816406,0.945312 1.203125,0.5625 3.539063,1.703125 3.964844,0.488281 0.734375,-2.085937 5.003906,0.519532 5.386719,0.757813 l 0.328125,-1.109375 C 83.386719,57.8125 79.152344,55.238281 78.425781,57.320313"
           style="fill:#990561;fill-opacity:1;fill-rule:nonzero;stroke:none" />
        <path
           id="path4641"
           d="m 77.828125,59.320313 c -0.425781,1.214843 -2.761719,0.07422 -3.964844,-0.488282 -0.886718,-0.417968 -1.5,-0.761718 -1.839843,-0.957031 l 0.878906,1.117188 h -1.195313 c 0.34375,0.199218 0.953125,0.539062 1.824219,0.945312 1.203125,0.566406 3.539063,1.703125 3.960938,0.488281 0.738281,-2.097656 5.042968,0.542969 5.394531,0.761719 l 0.324219,-1.109375 c -0.386719,-0.242187 -4.652344,-2.847656 -5.382813,-0.757812"
           style="fill:#990561;fill-opacity:1;fill-rule:nonzero;stroke:none" />
        <path
           id="path4643"
           d="m 78.054688,62.570313 c -6.308594,0 -11.417969,-2.246094 -11.417969,-5.015625 0,-2.773438 5.109375,-5.019532 11.417969,-5.019532 6.304687,0 11.417968,2.246094 11.417968,5.019532 0,2.769531 -5.113281,5.015625 -11.417968,5.015625 m 0,-10.507813 c -7.070313,0 -12.800782,2.457031 -12.800782,5.484375 0,3.03125 5.730469,5.488281 12.800782,5.488281 7.066406,0 12.796875,-2.457031 12.796875,-5.488281 0,-3.027344 -5.730469,-5.484375 -12.796875,-5.484375"
           style="fill:#990561;fill-opacity:1;fill-rule:nonzero;stroke:none" />
      </g>
      <path
         id="path9197"
         d="m 52.675781,70.347656 c 0,-2.523437 1.40625,-3.753906 2.984375,-3.753906 1.292969,0 2.847657,0.828125 2.847657,3.660156 0,2.496094 -1.277344,3.859375 -2.960938,3.859375 -1.574219,0 -2.871094,-1.238281 -2.871094,-3.753906 z m 1.34375,0.03906 c 0,2.265625 0.824219,2.984375 1.5625,2.984375 0.628907,0 1.582032,-0.484375 1.582032,-3.019531 0,-0.9375 -0.08984,-3.039063 -1.53125,-3.039063 -0.957032,0 -1.613282,0.933594 -1.613282,3.0625 z"
         style="clip-rule:nonzero;fill:#990561;fill-opacity:1;fill-rule:nonzero;stroke:none" />
      <path
         id="path9199"
         d="m 61.027344,66.691406 1.179687,5.191407 1.253907,-5.191407 h 0.777343 l 1.214844,5.175782 1.1875,-5.175782 h 0.878906 l -1.808593,7.3125 h -0.792969 l -1.25,-5.339843 -1.296875,5.339843 h -0.789063 l -1.8125,-7.3125 z"
         style="clip-rule:nonzero;fill:#990561;fill-opacity:1;fill-rule:nonzero;stroke:none" />
      <path
         id="path9201"
         d="M 70.234375,66.691406 73.589844,71.875 v -5.183594 h 0.890625 v 7.3125 h -0.8125 l -3.359375,-5.183593 v 5.183593 h -0.886719 v -7.3125 z"
         style="clip-rule:nonzero;fill:#990561;fill-opacity:1;fill-rule:nonzero;stroke:none" />
      <path
         id="path9203"
         d="m 80.683594,66.691406 v 0.773438 h -2.617188 v 2.375 h 2.441407 v 0.757812 h -2.441407 v 2.601563 h 2.660157 v 0.804687 h -3.886719 v -7.3125 z"
         style="clip-rule:nonzero;fill:#990561;fill-opacity:1;fill-rule:nonzero;stroke:none" />
      <path
         id="path9205"
         d="m 44.207031,67.695313 -0.05859,-0.02734 c -0.292969,-0.140625 -0.699219,-0.300781 -1.1875,-0.300781 -1.101563,0 -1.933594,1.089843 -1.933594,2.992187 0,2.109375 0.933594,2.980469 1.863281,2.980469 0.511719,0 0.945313,-0.234375 1.230469,-0.402344 l 0.05469,-0.03125 0.363282,0.6875 -0.05469,0.02734 c -0.390625,0.207031 -0.976562,0.492187 -1.800781,0.492187 -1.988281,0 -3.011719,-1.714843 -3.011719,-3.726562 0,-2.050781 1.109375,-3.792969 3.179688,-3.792969 0.5,0 1.066406,0.08203 1.617187,0.363281 l 0.05469,0.02734 z"
         style="clip-rule:nonzero;fill:#990561;fill-opacity:1;fill-rule:nonzero;stroke:none" />
      <path
         id="path9207"
         d="m 48.308594,66.691406 c 0.773437,0 1.273437,0.0078 1.824219,0.304688 0.675781,0.375 0.84375,1.066406 0.84375,1.5 0,0.820312 -0.414063,1.722656 -1.71875,2.039062 l 2.394531,3.46875 H 50.222656 L 48.140625,70.71875 h -0.347656 v 3.285156 h -1.210938 v -7.3125 z m -0.515625,0.75 v 2.601563 h 0.371094 c 0.582031,0 1.5625,0 1.5625,-1.410156 0,-0.617188 -0.207032,-0.902344 -0.480469,-1.046875 -0.140625,-0.07031 -0.304688,-0.109375 -0.476563,-0.128907 -0.175781,-0.01563 -0.355468,-0.01563 -0.527343,-0.01563 z"
         style="clip-rule:nonzero;fill:#990561;fill-opacity:1;fill-rule:nonzero;stroke:none" />
      <path
         id="path9209"
         d="m 116.125,67.992188 h 0.16406 v -0.363282 h 0.12891 c 0.0859,0 0.14453,0.01172 0.17969,0.02734 0.0586,0.03516 0.0859,0.105469 0.0859,0.214844 v 0.07422 l 0.004,0.04687 h 0.16016 c -0.0117,-0.01563 -0.0117,-0.03516 -0.0156,-0.05859 0,-0.02344 -0.004,-0.04687 -0.004,-0.07031 v -0.06641 c 0,-0.04687 -0.0156,-0.09375 -0.0508,-0.144531 -0.0312,-0.04687 -0.0859,-0.07813 -0.15625,-0.08984 0.0586,-0.0078 0.10157,-0.02344 0.13282,-0.04687 0.0586,-0.03516 0.0898,-0.09766 0.0898,-0.179687 0,-0.117188 -0.0469,-0.195313 -0.14453,-0.234375 -0.0508,-0.02344 -0.13672,-0.03516 -0.25,-0.03516 h -0.32422 z m 0.46484,-0.5 c -0.0352,0.01563 -0.0859,0.02344 -0.15234,0.02344 h -0.14844 v -0.335937 h 0.13672 c 0.0937,0 0.15625,0.01172 0.19922,0.03516 0.0391,0.01953 0.0586,0.06641 0.0586,0.132812 0,0.07031 -0.0312,0.121094 -0.0937,0.144532 m 0.4726,-0.554695 c -0.16406,-0.164062 -0.36328,-0.246094 -0.59766,-0.246094 -0.23437,0 -0.42968,0.08203 -0.59375,0.246094 -0.16406,0.164063 -0.24609,0.363281 -0.24609,0.59375 0,0.234375 0.0781,0.433594 0.24219,0.597656 0.16406,0.167969 0.36328,0.25 0.59765,0.25 0.23438,0 0.4336,-0.08203 0.59766,-0.25 0.16406,-0.164062 0.24609,-0.363281 0.24609,-0.597656 0,-0.230469 -0.082,-0.429687 -0.24609,-0.59375 m -0.0859,0.08203 c 0.14063,0.140625 0.21094,0.3125 0.21094,0.511719 0,0.203125 -0.0703,0.375 -0.21094,0.519531 -0.13672,0.140625 -0.30859,0.214844 -0.51172,0.214844 -0.19921,0 -0.37109,-0.07422 -0.51562,-0.214844 -0.13672,-0.144531 -0.20703,-0.316406 -0.20703,-0.519531 0,-0.199219 0.0703,-0.371094 0.21094,-0.511719 0.14062,-0.144531 0.3125,-0.214843 0.51171,-0.214843 0.19922,0 0.3711,0.07031 0.51172,0.214843"
         style="clip-rule:nonzero;fill:#990561;fill-opacity:1;fill-rule:nonzero;stroke:none" />
      <path
         id="path9211"
         d="m 113.96094,66.691406 2.5039,7.3125 h -1.30468 l -0.77735,-2.390625 H 112.375 l -0.76172,2.390625 h -0.91015 l 2.47656,-7.3125 z m -1.36328,4.203125 h 1.55859 l -0.76953,-2.460937 z"
         style="clip-rule:nonzero;fill:#990561;fill-opacity:1;fill-rule:nonzero;stroke:none" />
      <path
         id="path9213"
         d="m 88.097656,66.691406 c 0.847657,0 1.429688,0.01563 1.957032,0.363282 0.648437,0.425781 0.742187,1.152343 0.742187,1.546875 0,1.09375 -0.714844,2.199218 -2.527344,2.199218 H 87.375 v 3.203125 h -1.222656 v -7.3125 z m -0.722656,0.75 v 2.589844 h 0.660156 c 0.707032,0 1.460938,-0.121094 1.460938,-1.417969 0,-0.621093 -0.210938,-0.902343 -0.484375,-1.039062 -0.140625,-0.07031 -0.300781,-0.101563 -0.46875,-0.121094 -0.171875,-0.01563 -0.34375,-0.01172 -0.507813,-0.01172 z"
         style="clip-rule:nonzero;fill:#990561;fill-opacity:1;fill-rule:nonzero;stroke:none" />
      <path
         id="path9215"
         d="m 93.621094,66.691406 v 6.511719 H 96.1875 v 0.800781 h -3.792969 v -7.3125 z"
         style="clip-rule:nonzero;fill:#990561;fill-opacity:1;fill-rule:nonzero;stroke:none" />
      <path
         id="path9217"
         d="m 100.66016,66.691406 2.5039,7.3125 h -1.30468 l -0.77735,-2.390625 H 99.074219 L 98.3125,74.003906 h -0.914062 l 2.480468,-7.3125 z m -1.363285,4.203125 h 1.558595 l -0.76953,-2.460937 z"
         style="clip-rule:nonzero;fill:#990561;fill-opacity:1;fill-rule:nonzero;stroke:none" />
      <path
         id="path9219"
         d="M 109.32031,66.691406 V 67.3125 l -3.50781,5.886719 h 3.69922 v 0.804687 H 104.375 v -0.621093 l 3.52734,-5.917969 h -3.3125 v -0.773438 z"
         style="clip-rule:nonzero;fill:#990561;fill-opacity:1;fill-rule:nonzero;stroke:none" />
      <path
         id="path9221"
         d="M 58.183594,81.3125 V 79.699219 H 56.222656 V 81.3125 h -0.464843 v -3.609375 h 0.464843 v 1.59375 h 1.960938 v -1.59375 h 0.46875 V 81.3125 Z"
         style="clip-rule:nonzero;fill:#990561;fill-opacity:1;fill-rule:nonzero;stroke:none" />
      <path
         id="path9223"
         d="m 61.191406,78.046875 c -0.726562,0 -1.429687,0.554688 -1.429687,1.464844 0,0.914062 0.703125,1.472656 1.429687,1.472656 0.71875,0 1.433594,-0.558594 1.433594,-1.472656 0,-0.910156 -0.714844,-1.464844 -1.433594,-1.464844 m 0,3.328125 c -0.976562,0 -1.898437,-0.722656 -1.898437,-1.871094 0,-1.136718 0.921875,-1.867187 1.898437,-1.867187 0.980469,0 1.902344,0.730469 1.902344,1.867187 0,1.148438 -0.921875,1.871094 -1.902344,1.871094"
         style="clip-rule:nonzero;fill:#990561;fill-opacity:1;fill-rule:nonzero;stroke:none" />
      <path
         id="path9225"
         d="M 64.835938,78.105469 V 81.3125 h -0.464844 v -3.207031 h -1.199219 v -0.402344 h 2.859375 v 0.402344 z"
         style="clip-rule:nonzero;fill:#990561;fill-opacity:1;fill-rule:nonzero;stroke:none" />
      <path
         id="path9227"
         d="m 66.472656,81.3125 v -3.609375 h 1.910157 v 0.402344 H 66.9375 v 1.191406 h 1.203125 v 0.402344 H 66.9375 v 1.210937 h 1.652344 V 81.3125 Z"
         style="clip-rule:nonzero;fill:#990561;fill-opacity:1;fill-rule:nonzero;stroke:none" />
      <path
         id="path9229"
         d="m 69.03125,81.3125 v -3.609375 h 0.460938 v 3.207031 h 1.636718 V 81.3125 Z"
         style="clip-rule:nonzero;fill:#990561;fill-opacity:1;fill-rule:nonzero;stroke:none" />
      <path
         id="path9231"
         d="m 72.4375,81.339844 c -0.402344,0 -0.738281,-0.125 -0.929687,-0.257813 l -0.05859,-0.46875 c 0.257812,0.199219 0.609375,0.34375 1.007812,0.34375 0.421875,0 0.722657,-0.246093 0.722657,-0.605468 0,-0.363282 -0.207032,-0.5625 -0.679688,-0.726563 -0.632812,-0.214844 -0.949219,-0.523437 -0.949219,-1.027344 0,-0.46875 0.351563,-0.929687 1.082032,-0.929687 0.339843,0 0.621093,0.109375 0.761718,0.207031 l -0.08984,0.371094 c -0.136719,-0.09375 -0.40625,-0.207031 -0.683594,-0.207031 -0.414063,0 -0.644531,0.253906 -0.644531,0.523437 0,0.292969 0.195312,0.476563 0.617187,0.621094 0.625,0.226562 1.027344,0.511719 1.027344,1.128906 0,0.621094 -0.441406,1.027344 -1.183594,1.027344"
         style="clip-rule:nonzero;fill:#990561;fill-opacity:1;fill-rule:nonzero;stroke:none" />
      <path
         id="path9233"
         d="m 76.605469,78.007813 c -0.292969,0 -0.492188,0.234375 -0.492188,0.484375 0,0.234375 0.160157,0.421875 0.441407,0.699218 0.402343,-0.222656 0.582031,-0.4375 0.582031,-0.671875 0,-0.273437 -0.195313,-0.511718 -0.53125,-0.511718 m -0.152344,1.675781 c -0.332031,0.179687 -0.546875,0.378906 -0.546875,0.710937 0,0.339844 0.304688,0.601563 0.699219,0.601563 0.3125,0 0.589844,-0.125 0.820312,-0.335938 z M 78.082031,81.3125 77.71875,80.949219 C 77.414063,81.222656 77.035156,81.375 76.582031,81.375 c -0.664062,0 -1.117187,-0.4375 -1.117187,-0.957031 0,-0.46875 0.253906,-0.761719 0.707031,-1.023438 -0.304687,-0.3125 -0.476562,-0.582031 -0.476562,-0.882812 0,-0.535156 0.433593,-0.875 0.910156,-0.875 0.492187,0 0.949219,0.339844 0.949219,0.875 0,0.378906 -0.222657,0.691406 -0.710938,0.96875 l 0.867188,0.871094 c 0.171875,-0.238282 0.308593,-0.515625 0.394531,-0.796875 l 0.292969,0.292968 C 78.300781,80.140625 78.167969,80.414063 78,80.640625 l 0.671875,0.671875 z"
         style="clip-rule:nonzero;fill:#990561;fill-opacity:1;fill-rule:nonzero;stroke:none" />
      <path
         id="path9235"
         d="m 81.425781,78.105469 h -0.507812 v 1.203125 h 0.511719 c 0.355468,0 0.671875,-0.203125 0.671875,-0.597656 0,-0.390625 -0.316407,-0.605469 -0.675782,-0.605469 M 82.578125,81.3125 81.410156,79.695313 H 80.917969 V 81.3125 h -0.457031 v -3.609375 h 1.042968 c 0.53125,0 1.074219,0.34375 1.074219,0.996094 0,0.476562 -0.296875,0.792969 -0.675781,0.921875 l 1.25,1.691406 z"
         style="clip-rule:nonzero;fill:#990561;fill-opacity:1;fill-rule:nonzero;stroke:none" />
      <path
         id="path9237"
         d="m 83.398438,81.3125 v -3.609375 h 1.910156 v 0.402344 h -1.449219 v 1.191406 h 1.207031 v 0.402344 h -1.207031 v 1.210937 h 1.652344 V 81.3125 Z"
         style="clip-rule:nonzero;fill:#990561;fill-opacity:1;fill-rule:nonzero;stroke:none" />
      <path
         id="path9239"
         d="m 86.792969,81.339844 c -0.398438,0 -0.738281,-0.125 -0.933594,-0.257813 l -0.05469,-0.46875 c 0.261718,0.199219 0.609375,0.34375 1.007812,0.34375 0.421875,0 0.722656,-0.246093 0.722656,-0.605468 0,-0.363282 -0.210937,-0.5625 -0.679687,-0.726563 -0.632813,-0.214844 -0.949219,-0.523437 -0.949219,-1.027344 0,-0.46875 0.351563,-0.929687 1.078125,-0.929687 0.339844,0 0.625,0.109375 0.765625,0.207031 l -0.08984,0.371094 c -0.136718,-0.09375 -0.40625,-0.207031 -0.683593,-0.207031 -0.414063,0 -0.648438,0.253906 -0.648438,0.523437 0,0.292969 0.199219,0.476563 0.617188,0.621094 0.628906,0.226562 1.03125,0.511719 1.03125,1.128906 0,0.621094 -0.441407,1.027344 -1.183594,1.027344"
         style="clip-rule:nonzero;fill:#990561;fill-opacity:1;fill-rule:nonzero;stroke:none" />
      <path
         id="path9241"
         d="m 90.335938,78.046875 c -0.730469,0 -1.433594,0.554688 -1.433594,1.464844 0,0.914062 0.703125,1.472656 1.433594,1.472656 0.714843,0 1.429687,-0.558594 1.429687,-1.472656 0,-0.910156 -0.714844,-1.464844 -1.429687,-1.464844 m 0,3.328125 c -0.980469,0 -1.902344,-0.722656 -1.902344,-1.871094 0,-1.136718 0.921875,-1.867187 1.902344,-1.867187 0.976562,0 1.898437,0.730469 1.898437,1.867187 0,1.148438 -0.921875,1.871094 -1.898437,1.871094"
         style="clip-rule:nonzero;fill:#990561;fill-opacity:1;fill-rule:nonzero;stroke:none" />
      <path
         id="path9243"
         d="m 93.835938,78.105469 h -0.507813 v 1.203125 h 0.511719 c 0.355469,0 0.671875,-0.203125 0.671875,-0.597656 0,-0.390625 -0.316406,-0.605469 -0.675781,-0.605469 M 94.988281,81.3125 93.820313,79.695313 H 93.328125 V 81.3125 h -0.457031 v -3.609375 h 1.042969 c 0.53125,0 1.074218,0.34375 1.074218,0.996094 0,0.476562 -0.296875,0.792969 -0.675781,0.921875 l 1.25,1.691406 z"
         style="clip-rule:nonzero;fill:#990561;fill-opacity:1;fill-rule:nonzero;stroke:none" />
      <path
         id="path9245"
         d="M 96.859375,78.105469 V 81.3125 h -0.464844 v -3.207031 h -1.199218 v -0.402344 h 2.859375 v 0.402344 z"
         style="clip-rule:nonzero;fill:#990561;fill-opacity:1;fill-rule:nonzero;stroke:none" />
      <path
         id="path9247"
         d="m 99.34375,81.339844 c -0.398437,0 -0.738281,-0.125 -0.933594,-0.257813 l -0.05469,-0.46875 c 0.257812,0.199219 0.609375,0.34375 1.007812,0.34375 0.421875,0 0.722662,-0.246093 0.722662,-0.605468 0,-0.363282 -0.210943,-0.5625 -0.679693,-0.726563 -0.632812,-0.214844 -0.949219,-0.523437 -0.949219,-1.027344 0,-0.46875 0.351563,-0.929687 1.078125,-0.929687 0.339844,0 0.625007,0.109375 0.765627,0.207031 l -0.0898,0.371094 c -0.13672,-0.09375 -0.406255,-0.207031 -0.683599,-0.207031 -0.414063,0 -0.648438,0.253906 -0.648438,0.523437 0,0.292969 0.199219,0.476563 0.617188,0.621094 0.628909,0.226562 1.031249,0.511719 1.031249,1.128906 0,0.621094 -0.4414,1.027344 -1.183593,1.027344"
         style="clip-rule:nonzero;fill:#990561;fill-opacity:1;fill-rule:nonzero;stroke:none" />
      <path
         id="path9249"
         d="m 79.019531,55.320313 c -0.425781,1.210937 -2.757812,0.07031 -3.960937,-0.492188 -0.890625,-0.414062 -1.5,-0.757812 -1.84375,-0.957031 l 0.878906,1.117187 h -1.191406 c 0.34375,0.199219 0.949219,0.539063 1.820312,0.945313 1.203125,0.566406 3.539063,1.707031 3.964844,0.492187 0.730469,-2.082031 4.964844,0.496094 5.382813,0.757813 l 0.328125,-1.113281 c -0.445313,-0.277344 -4.652344,-2.824219 -5.378907,-0.75"
         style="clip-rule:nonzero;fill:#990561;fill-opacity:1;fill-rule:nonzero;stroke:none" />
      <path
         id="path9251"
         d="M 78.425781,57.320313 C 78,58.53125 75.664063,57.390625 74.460938,56.828125 c -0.890625,-0.414062 -1.5,-0.757812 -1.84375,-0.953125 l 0.878906,1.117188 h -1.1875 c 0.339844,0.195312 0.949219,0.539062 1.816406,0.945312 1.203125,0.5625 3.539063,1.703125 3.964844,0.488281 0.734375,-2.085937 5.003906,0.519532 5.386719,0.757813 l 0.328125,-1.109375 C 83.386719,57.8125 79.152344,55.238281 78.425781,57.320313"
         style="clip-rule:nonzero;fill:#990561;fill-opacity:1;fill-rule:nonzero;stroke:none" />
      <path
         id="path9253"
         d="m 77.828125,59.320313 c -0.425781,1.214843 -2.761719,0.07422 -3.964844,-0.488282 -0.886718,-0.417968 -1.5,-0.761718 -1.839843,-0.957031 l 0.878906,1.117188 h -1.195313 c 0.34375,0.199218 0.953125,0.539062 1.824219,0.945312 1.203125,0.566406 3.539063,1.703125 3.960938,0.488281 0.738281,-2.097656 5.042968,0.542969 5.394531,0.761719 l 0.324219,-1.109375 c -0.386719,-0.242187 -4.652344,-2.847656 -5.382813,-0.757812"
         style="clip-rule:nonzero;fill:#990561;fill-opacity:1;fill-rule:nonzero;stroke:none" />
      <path
         id="path9255"
         d="m 78.054688,62.570313 c -6.308594,0 -11.417969,-2.246094 -11.417969,-5.015625 0,-2.773438 5.109375,-5.019532 11.417969,-5.019532 6.304687,0 11.417968,2.246094 11.417968,5.019532 0,2.769531 -5.113281,5.015625 -11.417968,5.015625 m 0,-10.507813 c -7.070313,0 -12.800782,2.457031 -12.800782,5.484375 0,3.03125 5.730469,5.488281 12.800782,5.488281 7.066406,0 12.796875,-2.457031 12.796875,-5.488281 0,-3.027344 -5.730469,-5.484375 -12.796875,-5.484375"
         style="clip-rule:nonzero;fill:#990561;fill-opacity:1;fill-rule:nonzero;stroke:none" />
    </g>
  </g>
</svg>
